# xmcd
#
# Track frame offsets:
# 150
# 24238
# 52826
# 72873
# 99538
# 132152
# 212762
#
# Disc length: 3496 seconds
#
#
# Revision: 0
# Processed by: cddbd v1.5.1PL0 Copyright (c) Steve Scherf et al.
# Submitted via: FreeRIP 2.60 
#
DISCID=560da607
DTITLE=Jackie Payne - LIVE at BLUESVILLE
DYEAR=2003
DGENRE=Blues
TTITLE0=Flyin' High
TTITLE1=Six Million Dollar Man
TTITLE2=Hey Miss Bessie
TTITLE3=Sittin' On Top Of The World - Com On Into My Kitchen
TTITLE4=Shaky Ground
TTITLE5=I'll Drink Your Bath Water Baby
TTITLE6=Down Home Blues Medley
EXTD=
EXTT0=
EXTT1=
EXTT2=
EXTT3=
EXTT4=
EXTT5=
EXTT6=(a)Somebody Else is Steppin In (b)Ruinin' My Bad Reputation(c)Blues All Over Me
PLAYORDER=
